<svg width="369" height="344" viewBox="0 0 369 344" fill="none" xmlns="http://www.w3.org/2000/svg">
<g clip-path="url(#clip0_4_873)">
<path d="M249.989 164.051V339.638" stroke="#2A272D" stroke-width="1.9882" stroke-miterlimit="10"/>
<path d="M174.47 218.271C174.47 218.271 198.979 212.746 202.669 228.612C205.856 242.226 172.52 241.705 172.52 241.705L99.2233 242.143C99.2233 242.143 71.6112 245.312 57.9624 213.643C44.3136 181.974 31.168 99.0386 31.168 99.0386C31.168 99.0386 29.1972 87.6345 38.7576 85.9666C49.9953 84.0069 52.1967 108.149 52.1967 108.149C52.1967 108.149 69.1791 210.515 93.835 215.519C97.6299 216.291 100.649 219.147 104.528 219.105L174.47 218.271Z" fill="#FFEEE3"/>
<path d="M239.61 135.581L262.757 133.996C264.644 133.871 266.447 134.726 267.517 136.248L280.452 155.699L269.445 156.221L263.239 146.735C263.239 146.735 245.356 151.175 238.751 146.735L239.61 135.581Z" fill="#F2C09E"/>
<path d="M146.375 72.5625L177.3 129.708L241.561 131.751V152.767L173.694 155.727C164.72 156.123 156.208 151.849 151.176 144.448L120.293 89.3039L146.375 72.5625Z" fill="#EFC375"/>
<path d="M241.561 131.738V152.753L234.39 153.066V131.508L241.561 131.738Z" fill="#F7E5DA"/>
<path d="M207.889 301.131L211.516 326.4L229.798 325.274L227.177 299.192L207.889 301.131Z" fill="#FCC9A7"/>
<path d="M207.428 323.835C207.826 322.647 209.252 322.167 210.279 322.897C212.292 324.315 215.835 326.004 220.93 325.357C226.234 324.69 228.1 321.876 228.75 319.895C229.085 318.853 230.218 318.29 231.245 318.686L264.204 331.528C266.217 332.3 267.81 333.843 268.67 335.802C269.466 337.637 268.145 339.701 266.112 339.743L210.3 340.556C208.099 340.598 206.337 338.784 206.421 336.595L206.82 325.878C206.82 325.691 206.862 325.524 206.925 325.357L207.428 323.835Z" fill="#1F252A"/>
<path d="M152.35 67.6598L157.591 76.02C157.927 76.8123 158.074 78.7303 156.627 79.4392L154.593 80.8986L150.232 74.2688L152.35 67.6598Z" fill="#FFEEE3"/>
<path d="M142.58 76.5002L140.924 75.7079C135.472 73.0602 133.208 66.5138 135.871 61.0931L153.566 25.067L173.211 34.6156L152.769 74.9574C150.589 79.4398 147.088 78.6893 142.58 76.5002Z" fill="#FCC9A7"/>
<path d="M187.866 41.7303C182.101 53.4472 167.865 58.3257 156.082 52.5924C144.299 46.8591 139.393 32.7238 145.159 20.9861C150.924 9.26917 165.139 4.39063 176.943 10.124C188.747 15.8573 193.632 30.0135 187.866 41.7303Z" fill="#FCC9A7"/>
<path d="M159.185 65.031C153.587 62.3207 151.26 55.5866 154.007 50.0201L163.986 29.6928L188.055 41.3888L179.921 57.9634C176.147 65.5939 166.859 68.7837 159.185 65.031Z" fill="#FCC9A7"/>
<path d="M184.932 46.1761L186.231 55.266C186.336 56.7045 184.806 57.6427 183.464 56.9964L177.552 55.3911L184.932 46.1761Z" fill="#FCC9A7"/>
<path d="M164.091 41.6255C164.091 41.6255 172.414 42.1675 173.777 29.3874C173.777 29.3874 188.243 38.5607 194.135 34.9123C194.135 34.9123 195.938 -1.23897 165.894 0.0327842C135.85 1.30454 133.501 33.5571 133.501 33.5571L150.358 48.6931L164.091 41.6255Z" fill="#1C2226"/>
<path d="M165.286 42.1485C163.713 45.3801 159.793 46.7144 156.543 45.1299C153.314 43.5454 151.952 39.6676 153.545 36.4361C155.117 33.2045 159.038 31.8702 162.288 33.4547C165.516 35.0392 166.858 38.917 165.286 42.1485Z" fill="#FCC9A7"/>
<path d="M146.941 37.3482L142.475 47.7099C142.475 47.7099 152.288 55.5281 157.235 45.4583L150.107 43.4568L146.941 37.3482Z" fill="#1C2226"/>
<path d="M173.777 29.382C173.777 29.382 193.38 44.4346 201.117 31.8212C207.281 21.7514 200.425 15.2259 190.529 16.8521C186.252 17.5609 184.134 14.6839 180.78 12.4114L173.777 29.382Z" fill="#1C2226"/>
<path d="M156.166 85.9564C156.166 85.9564 155.726 76.7622 152.79 73.5724C149.855 70.3826 134.215 61.5845 134.215 61.5845C134.215 61.5845 111.718 68.0684 97.9016 93.6287C87.1461 113.539 77.0195 163.93 77.0195 163.93L141.93 173.291C147.528 135.638 158.011 118.48 156.166 85.9564Z" fill="#FFD686"/>
<path d="M135.305 59.806L132.6 61.0152C131.636 61.453 131.426 62.7456 132.223 63.4544L149.373 78.6321C150.065 79.2576 151.155 79.07 151.637 78.2777L153.566 74.9628C153.922 74.3374 153.776 73.5451 153.209 73.0864L136.814 60.0353C136.395 59.66 135.808 59.5766 135.305 59.806Z" fill="#FFEEE3"/>
<path d="M232.461 139.001L255.608 137.417C257.495 137.291 259.298 138.146 260.367 139.668L272.234 156.451L261.143 157.869L256.09 150.134C256.09 150.134 238.205 154.575 231.601 150.134L232.461 139.001Z" fill="#FCC9A7"/>
<path d="M133.229 76.8137L168.159 135.419L234.411 137.232V156.184L162.917 159.29C156.208 159.582 149.813 156.392 146.04 150.847L107.148 93.5549L133.229 76.8137Z" fill="#FFD686"/>
<path d="M234.41 137.225V156.156L227.24 156.469V137.225H234.41Z" fill="#FFEEE3"/>
<path d="M77.02 163.921L204.702 182.33C214.472 183.748 222.02 191.608 222.964 201.386L232.482 309.527L203.969 311.362L190.257 217.627L110.083 219.691C88.3206 219.691 71.6317 200.469 74.7976 179.057L77.02 163.921Z" fill="#54585A"/>
<path d="M303.326 155.728H235.984V160.065H303.326V155.728Z" fill="#2A272D"/>
<path d="M303.347 160.067L325.131 96.7918L320.56 95.7075L299.196 156.481L303.347 160.067Z" fill="#2A272D"/>
<path d="M158.116 64.4623C158.116 64.4623 152.056 60.8972 152.056 53.3917C152.056 53.3917 148.283 61.5226 155.977 68.6737L158.116 64.4623Z" fill="#F2C09E"/>
<path d="M58.7173 343.723C59.7237 343.723 60.6462 343.035 60.9187 342.013L94.2545 211.314C97.022 200.494 106.771 192.926 118.009 192.926C128.911 192.926 138.597 200.202 141.575 210.626C153.232 251.468 180.362 340.575 180.634 341.471C180.99 342.659 182.269 343.347 183.464 342.972C184.66 342.618 185.351 341.346 184.974 340.158C184.701 339.261 157.572 250.196 145.935 209.396C142.413 197.033 130.924 188.402 117.988 188.402C104.675 188.402 93.1014 197.367 89.8307 210.188L56.4949 340.908C56.1804 342.117 56.9142 343.347 58.1303 343.66C58.3399 343.702 58.5286 343.723 58.7173 343.723Z" fill="#1F252A"/>
<path d="M146.061 150.836L126.039 121.377" stroke="#EFC375" stroke-width="0.7847" stroke-miterlimit="10" stroke-linecap="round" stroke-linejoin="round"/>
<path d="M399.769 160.061H225.312V167.879H399.769V160.061Z" fill="#FFEEE3"/>
<path d="M249.989 186.871H377.713" stroke="#2A272D" stroke-width="1.9882" stroke-miterlimit="10"/>
<path d="M157.802 116.589L138.618 85.8372" stroke="#EFC375" stroke-width="0.7847" stroke-miterlimit="10" stroke-linecap="round" stroke-linejoin="round"/>
</g>
<defs>
<clipPath id="clip0_4_873">
<rect width="369" height="344" fill="white"/>
</clipPath>
</defs>
</svg>
