<svg width="88" height="46" viewBox="0 0 88 46" fill="none" xmlns="http://www.w3.org/2000/svg">
<path d="M87.5151 13.8949L79.2351 4.31156C79.0608 4.113 78.8479 3.95415 78.6103 3.84522C78.3726 3.73629 78.1154 3.67969 77.8551 3.67906H62.9364C62.3168 3.67146 61.7018 3.78938 61.1265 4.02608C60.5513 4.26278 60.027 4.61363 59.5837 5.05858C59.1404 5.50354 58.7867 6.03389 58.5428 6.61935C58.2989 7.20481 58.1697 7.83391 58.1624 8.47072V37.2207C58.1697 37.8575 58.2989 38.4866 58.5428 39.0721C58.7867 39.6576 59.1404 40.1879 59.5837 40.6329C60.027 41.0778 60.5513 41.4287 61.1265 41.6654C61.7018 41.9021 62.3168 42.02 62.9364 42.0124H83.2259C83.8455 42.02 84.4605 41.9021 85.0357 41.6654C85.611 41.4287 86.1352 41.0778 86.5786 40.6329C87.0219 40.1879 87.3756 39.6576 87.6195 39.0721C87.8633 38.4866 87.9926 37.8575 87.9999 37.2207V15.1791C87.9987 14.704 87.8259 14.2464 87.5151 13.8949ZM76.8108 7.51239L83.7854 15.1791H78.1908C77.9955 15.1669 77.8045 15.115 77.629 15.0262C77.4535 14.9374 77.2969 14.8135 77.1685 14.6619C77.04 14.5102 76.9422 14.3338 76.8808 14.1429C76.8194 13.9519 76.7956 13.7504 76.8108 13.5499V7.51239Z" fill="white"/>
</svg>
