<svg width="20" height="19" viewBox="0 0 20 19" fill="none" xmlns="http://www.w3.org/2000/svg">
<path d="M1.25 2.50098H18.75C19.4404 2.50098 20 2.01595 20 1.41764C20 0.819335 19.4404 0.33431 18.75 0.33431H1.25C0.559645 0.33431 0 0.819335 0 1.41764C0 2.01595 0.559645 2.50098 1.25 2.50098Z" fill="#231F20"/>
<path d="M20 3.58398V1.41732C20 0.819009 19.4404 0.333984 18.75 0.333984C18.0596 0.333984 17.5 0.819009 17.5 1.41732V3.58398C17.5 4.18229 18.0596 4.66732 18.75 4.66732C19.4404 4.66732 20 4.18229 20 3.58398Z" fill="#231F20"/>
<path d="M2.50003 3.58398V1.41732C2.50003 0.819009 1.94039 0.333984 1.25003 0.333984C0.559675 0.333984 3.05176e-05 0.819009 3.05176e-05 1.41732V3.58398C3.05176e-05 4.18229 0.559675 4.66732 1.25003 4.66732C1.94039 4.66732 2.50003 4.18229 2.50003 3.58398Z" fill="#231F20"/>
<path d="M5 11.1674C4.80594 11.1674 4.61455 11.1283 4.44098 11.0531C4.26741 10.9779 4.11643 10.8686 4 10.7341C3.90151 10.6203 3.82985 10.4908 3.78911 10.353C3.74837 10.2152 3.73935 10.0717 3.76256 9.9309C3.78578 9.79006 3.84077 9.65457 3.92441 9.53215C4.00804 9.40973 4.11868 9.30279 4.25 9.21743L9.25 5.96744C9.46408 5.83186 9.72235 5.75879 9.9875 5.75879C10.2526 5.75879 10.5109 5.83186 10.725 5.96744L15.725 9.02244C15.9945 9.18812 16.1773 9.43952 16.2335 9.7217C16.2898 10.0039 16.2148 10.2939 16.025 10.5283C15.9303 10.6454 15.8097 10.7452 15.6702 10.8217C15.5308 10.8983 15.3752 10.9502 15.2125 10.9743C15.0498 10.9985 14.8832 10.9945 14.7223 10.9626C14.5614 10.9306 14.4094 10.8714 14.275 10.7883L10 8.17743L5.75 10.9508C5.53363 11.0914 5.27046 11.1674 5 11.1674Z" fill="#231F20"/>
<path d="M10 18.7503C9.66848 18.7503 9.35054 18.6362 9.11612 18.433C8.8817 18.2299 8.75 17.9543 8.75 17.667V9.00033C8.75 8.71301 8.8817 8.43746 9.11612 8.23429C9.35054 8.03113 9.66848 7.91699 10 7.91699C10.3315 7.91699 10.6495 8.03113 10.8839 8.23429C11.1183 8.43746 11.25 8.71301 11.25 9.00033V17.667C11.25 17.9543 11.1183 18.2299 10.8839 18.433C10.6495 18.6362 10.3315 18.7503 10 18.7503Z" fill="#231F20"/>
</svg>
