<svg width="207" height="148" viewBox="0 0 207 148" fill="none" xmlns="http://www.w3.org/2000/svg">
<g clip-path="url(#clip0_193_15)">
<path d="M54.957 134.295L59.8451 143.757L61.8811 142.713L56.8188 132.914" fill="#F96440"/>
<path opacity="0.2" d="M57.3522 134.777L59.5816 139.097L57.3926 139.84L55.4905 136.16L57.3522 134.777Z" fill="#463E3B"/>
<path d="M62.3933 142.879L59.3414 144.444L54.1919 134.476L55.2099 133.953L59.8345 142.909L60.8524 142.386L56.0515 133.095L57.0695 132.572L62.3933 142.879Z" fill="#314E5D"/>
<path d="M50.5342 140.41L97.6575 116.241C98.5812 115.767 99.4022 115.117 100.074 114.327C100.745 113.537 101.254 112.624 101.571 111.638C101.888 110.652 102.007 109.614 101.921 108.583C101.835 107.551 101.546 106.547 101.071 105.627L59.6069 25.372C59.1315 24.4518 58.4788 23.6339 57.6861 22.9648C56.8934 22.2959 55.9764 21.7891 54.987 21.4734C53.9975 21.1576 52.9555 21.0391 51.9203 21.1246C50.8849 21.21 49.8767 21.4979 48.953 21.9716L1.82973 46.1343C1.17086 46.4724 0.673762 47.0575 0.447784 47.7606C0.221803 48.4638 0.285444 49.2277 0.624705 49.8841L46.7704 139.209C47.1098 139.866 47.697 140.361 48.4028 140.586C49.1086 140.811 49.8754 140.748 50.5342 140.41Z" fill="#E8F0F9"/>
<path d="M49.1296 22.3105L2.00629 46.4712C1.59328 46.6825 1.23976 46.9933 0.977753 47.3752C0.715752 47.7572 0.553552 48.198 0.505859 48.6583C0.703532 48.4676 0.928405 48.3071 1.17319 48.1819L48.2965 24.0192C49.2202 23.5453 50.2284 23.2576 51.2638 23.1721C52.299 23.0867 53.341 23.2051 54.3303 23.521C55.3197 23.8367 56.2369 24.3436 57.0296 25.0124C57.8224 25.6813 58.475 26.4992 58.9504 27.4196L100.414 107.683C100.903 108.627 101.194 109.661 101.27 110.721C101.346 111.782 101.205 112.846 100.856 113.85C101.611 112.688 102.044 111.347 102.113 109.964C102.182 108.581 101.883 107.205 101.247 105.974L59.7835 25.7109C59.3081 24.7905 58.6555 23.9726 57.8627 23.3038C57.07 22.6349 56.1528 22.128 55.1634 21.8123C54.1741 21.4964 53.1321 21.3781 52.0969 21.4634C51.0615 21.5489 50.0533 21.8367 49.1296 22.3105Z" fill="white"/>
<path d="M3.92953 45.4844L2.68413 46.1196C2.35805 46.2877 2.06845 46.5183 1.83184 46.798C1.59523 47.0776 1.41626 47.401 1.30514 47.7497C1.19402 48.0982 1.15294 48.4653 1.18425 48.8297C1.21556 49.1941 1.31864 49.549 1.4876 49.8736L47.6226 139.199C47.7905 139.524 48.0211 139.813 48.301 140.049C48.5811 140.286 48.905 140.465 49.2546 140.577C49.604 140.688 49.9723 140.73 50.3381 140.7C50.7038 140.67 51.06 140.569 51.3865 140.401L52.6319 139.766L3.92953 45.4844Z" fill="#BCD9EA"/>
<path d="M98.1868 116.838L51.0529 140.999C50.2585 141.405 49.3348 141.481 48.4845 141.209C47.6342 140.938 46.9269 140.341 46.5176 139.551L0.371879 50.2276C-0.0359492 49.4361 -0.111932 48.516 0.160611 47.6688C0.433154 46.8217 1.03195 46.1168 1.82555 45.7093L48.9489 21.5465C50.9507 20.5257 53.277 20.3366 55.4184 21.0207C57.5596 21.7049 59.3416 23.2065 60.3743 25.1968L101.838 105.46C102.862 107.452 103.053 109.767 102.369 111.9C101.685 114.032 100.181 115.807 98.1868 116.838ZM2.3505 46.7235C1.82666 46.9928 1.43152 47.4582 1.25182 48.0176C1.07211 48.5769 1.12253 49.1844 1.392 49.7067L47.5356 139.03C47.8059 139.552 48.273 139.945 48.8345 140.124C49.396 140.303 50.0058 140.253 50.5301 139.985L97.6534 115.818C99.3821 114.929 100.686 113.393 101.28 111.547C101.873 109.701 101.708 107.696 100.82 105.972L59.3563 25.7155C58.4639 23.9933 56.9224 22.6939 55.0696 22.1025C53.217 21.5112 51.2046 21.6759 49.4738 22.5607L2.3505 46.7235Z" fill="#314E5D"/>
<path opacity="0.2" d="M68.2206 61.4026L62.5292 55.7791L53.3714 46.7276L53.1695 46.5285C52.7951 46.1589 52.2886 45.9522 51.7616 45.9541C51.2343 45.9562 50.7293 46.1665 50.3578 46.5391L50.1581 46.7403L21.9368 75.0826L21.737 75.2943C21.3657 75.6674 21.1584 76.1719 21.1604 76.697C21.1624 77.2223 21.3736 77.7254 21.7476 78.0955L29.2732 85.5336L36.5968 92.76L36.8093 92.959C37.1838 93.3289 37.6902 93.5354 38.2173 93.5335C38.7446 93.5316 39.2495 93.3211 39.621 92.9485L68.2419 64.1933C68.6085 63.8193 68.8119 63.3163 68.8078 62.7937C68.8038 62.271 68.5927 61.7711 68.2206 61.4026Z" fill="#463E3B"/>
<path d="M53.3218 44.7792L21.0924 71.76C20.5569 72.2083 20.4875 73.0044 20.9376 73.5379L35.5039 90.808C35.954 91.3416 36.7529 91.4108 37.2885 90.9623L69.518 63.9817C70.0536 63.5332 70.1229 62.7373 69.6727 62.2038L55.1064 44.9335C54.6563 44.3999 53.8574 44.3309 53.3218 44.7792Z" fill="white"/>
<g opacity="0.2">
<path opacity="0.2" d="M45.8694 83.7765L38.0634 90.3148C37.8345 90.507 37.5699 90.6523 37.2847 90.7423C36.9995 90.8325 36.6992 90.8655 36.401 90.8397C36.1028 90.814 35.8127 90.7298 35.5473 90.5921C35.2818 90.4545 35.0463 90.2659 34.8542 90.0374L21.582 74.3016C21.5314 74.2429 21.4853 74.1807 21.4438 74.1152C24.1217 74.6742 27.029 74.6276 29.7727 74.4519C31.2328 74.3566 32.7056 74.2402 34.155 74.4138C37.9401 74.8711 41.2512 77.3018 43.5911 80.2957C44.4425 81.3935 45.2044 82.5576 45.8694 83.7765Z" fill="#DED6D3"/>
</g>
<path d="M37.7339 91.2564C37.2173 91.5187 36.6264 91.5987 36.0584 91.4833C35.4901 91.3679 34.9779 91.0641 34.6055 90.6212L20.9656 74.4513C20.7488 74.1946 20.5848 73.8978 20.4831 73.5781C20.3814 73.2582 20.344 72.9215 20.3731 72.5872C20.4021 72.2529 20.4969 71.9276 20.6522 71.6297C20.8075 71.332 21.0201 71.0678 21.278 70.8518L52.4024 44.7983C52.6594 44.5807 52.9571 44.4162 53.2785 44.3139C53.5996 44.2116 53.9381 44.1739 54.2741 44.2027C54.6101 44.2317 54.937 44.3268 55.2358 44.4824C55.5348 44.6381 55.7997 44.8513 56.0154 45.1096L69.6553 61.2774C69.872 61.5342 70.0361 61.831 70.1377 62.1507C70.2395 62.4707 70.2769 62.8073 70.2478 63.1416C70.2189 63.476 70.1239 63.8012 69.9687 64.0991C69.8134 64.3968 69.6006 64.661 69.3428 64.8768L38.2142 90.9324C38.0667 91.0582 37.9056 91.1668 37.7339 91.2564ZM53.4013 45.5034C53.3072 45.5521 53.2187 45.611 53.1378 45.6791L22.0155 71.7305C21.7284 71.9717 21.5488 72.3164 21.5165 72.6892C21.4844 73.0619 21.6019 73.4322 21.8434 73.7187L35.4918 89.8865C35.7338 90.1727 36.0798 90.3514 36.4539 90.3836C36.8281 90.4158 37.1998 90.2987 37.4874 90.058L68.6011 64.0002C68.8883 63.7593 69.0676 63.4146 69.0999 63.0417C69.1322 62.6689 69.0147 62.2987 68.7733 62.0121L55.1334 45.8443C54.9268 45.5997 54.6429 45.432 54.3283 45.3689C54.0136 45.3059 53.6867 45.3512 53.4013 45.497V45.5034Z" fill="#314E5D"/>
<path opacity="0.2" d="M42.8961 27.1015C42.5843 26.4979 42.0447 26.0424 41.3959 25.8351C40.747 25.6279 40.0421 25.6859 39.4362 25.9963L37.5595 26.9596C37.0282 27.2345 36.61 27.6855 36.3773 28.2349C36.1443 28.7841 36.1116 29.3973 36.2844 29.9683C36.3037 30.3257 36.3985 30.6749 36.5628 30.9931L84.3046 123.422C84.4591 123.722 84.6716 123.988 84.9296 124.206C85.1878 124.424 85.4866 124.589 85.8088 124.691C86.131 124.794 86.4704 124.832 86.8075 124.804C87.1446 124.775 87.4727 124.681 87.773 124.525L89.6496 123.562C90.247 123.099 90.6706 122.45 90.8525 121.718C91.0346 120.987 90.9641 120.215 90.6527 119.528L42.8961 27.1015Z" fill="#463E3B"/>
<path d="M41.1729 24.6874L39.5479 25.5206C38.2171 26.2028 37.6936 27.8306 38.3782 29.1562L85.9928 121.339C86.6776 122.665 88.3115 123.186 89.6421 122.504L91.2673 121.671C92.5979 120.989 93.1216 119.361 92.4368 118.035L44.8221 25.8526C44.1374 24.5269 42.5037 24.0052 41.1729 24.6874Z" fill="#938D35"/>
<path d="M41.6424 25.0928L91.4733 121.553C91.4486 121.569 91.4231 121.583 91.3967 121.596L90.4574 122.078L40.6201 25.6052L41.4043 25.2029C41.4808 25.1633 41.5601 25.1267 41.6424 25.0928Z" fill="#DAE23B"/>
<path d="M38.4727 26.0137L38.1345 26.1871L88.2307 123.174L88.569 123.001L38.4727 26.0137Z" fill="#463E3B"/>
<path d="M39.6633 25.8301L39.325 26.0035L89.4213 122.991L89.7594 122.818L39.6633 25.8301Z" fill="#463E3B"/>
<path d="M40.6789 25.3076L40.3406 25.481L90.4367 122.468L90.775 122.295L40.6789 25.3076Z" fill="#463E3B"/>
<path d="M41.6975 24.7871L41.3591 24.9605L91.4555 121.948L91.7936 121.774L41.6975 24.7871Z" fill="#463E3B"/>
<path d="M42.7161 24.2656L42.3779 24.439L92.4741 121.426L92.8124 121.253L42.7161 24.2656Z" fill="#463E3B"/>
<path d="M91.5985 122.352L89.7219 123.315C88.9811 123.694 88.1197 123.764 87.3268 123.511C86.5338 123.258 85.8742 122.702 85.4927 121.964L37.7339 29.5353C37.3537 28.7972 37.2827 27.939 37.5371 27.1491C37.7913 26.3591 38.3496 25.7019 39.0898 25.3218L40.9664 24.3585C41.7071 23.9795 42.5687 23.9089 43.3616 24.1622C44.1545 24.4154 44.814 24.9718 45.1957 25.7093L92.9438 118.147C93.3221 118.883 93.3931 119.738 93.1411 120.525C92.889 121.313 92.3345 121.97 91.5985 122.352ZM39.6126 26.336C39.1436 26.5774 38.7895 26.9939 38.6278 27.4946C38.4663 27.9954 38.5101 28.5393 38.7498 29.0081L86.4979 121.443C86.7406 121.912 87.1599 122.265 87.6641 122.426C88.1682 122.587 88.7156 122.542 89.1864 122.301L91.063 121.338C91.5333 121.096 91.888 120.678 92.0495 120.176C92.2108 119.674 92.1656 119.128 91.9237 118.659L44.1777 26.2302C43.935 25.7616 43.5155 25.408 43.0116 25.2473C42.5075 25.0864 41.96 25.1315 41.4892 25.3726L39.6126 26.336Z" fill="#314E5D"/>
<path d="M170.764 0.673828H74.1609C71.1878 0.673828 68.7776 3.07499 68.7776 6.03698V141.522C68.7776 144.484 71.1878 146.885 74.1609 146.885H170.764C173.738 146.885 176.148 144.484 176.148 141.522V6.03698C176.148 3.07499 173.738 0.673828 170.764 0.673828Z" fill="#1DCDFF"/>
<path d="M176.148 92.1855V138.131C176.148 142.967 173.846 146.886 171.007 146.886H73.9186C71.0792 146.886 68.7776 142.967 68.7776 138.131V111.557C75.3234 118.878 82.7745 123.818 90.417 126.886C99.6448 130.596 109.172 131.678 118.651 131.836C129.983 132.029 141.51 130.869 152.179 124.371C161.962 118.411 171.028 107.458 176.148 92.1855Z" fill="#1AB5E1"/>
<path d="M107.597 1.04218C97.4832 3.93231 83.4332 1.14381 74.7026 11.7642C70.5584 16.8013 69.5404 26.5664 68.873 34.644L68.8858 12.0353C68.8858 9.13877 68.9432 5.97763 70.0441 3.77774C71.4085 1.04006 73.7888 0.830444 75.8885 0.832562C86.2045 0.847383 97.4832 -1.0582 107.597 1.04218Z" fill="#4ED9FF"/>
<path d="M170.662 0.84668H74.0588C71.0858 0.84668 68.6755 3.24784 68.6755 6.20983V141.694C68.6755 144.656 71.0858 147.058 74.0588 147.058H170.662C173.636 147.058 176.046 144.656 176.046 141.694V6.20983C176.046 3.24784 173.636 0.84668 170.662 0.84668Z" stroke="#314E5D" stroke-width="8" stroke-miterlimit="10"/>
<path d="M162.733 10.3096H82.3006C80.4391 10.3096 78.9299 11.813 78.9299 13.6676V132.845C78.9299 134.699 80.4391 136.203 82.3006 136.203H162.733C164.595 136.203 166.104 134.699 166.104 132.845V13.6676C166.104 11.813 164.595 10.3096 162.733 10.3096Z" fill="white"/>
<path d="M165.997 13.8819V38.3242H78.8257V13.8819C78.8257 12.0059 80.0732 10.4942 81.614 10.4942H163.22C164.75 10.4857 165.997 12.0059 165.997 13.8819Z" fill="#EA4583"/>
<path d="M162.629 10.1006H82.1963C80.3348 10.1006 78.8257 11.604 78.8257 13.4586V133.546C78.8257 135.401 80.3348 136.904 82.1963 136.904H162.629C164.49 136.904 165.999 135.401 165.999 133.546V13.4586C165.999 11.604 164.49 10.1006 162.629 10.1006Z" stroke="#314E5D" stroke-width="8" stroke-miterlimit="10"/>
<path d="M150.813 26.7705H93.8684V31.6742H150.813V26.7705Z" fill="white"/>
<path d="M92.0938 63.3034H119.954V62.1367H92.0938V63.3034Z" fill="#AFE6FF"/>
<path d="M92.0959 65.8698H152.73V64.7031H92.0959V65.8698Z" fill="#AFE6FF"/>
<path d="M92.0938 68.4362H119.954V67.2695H92.0938V68.4362Z" fill="#AFE6FF"/>
<path d="M92.0959 71.0006H152.73V69.834H92.0959V71.0006Z" fill="#AFE6FF"/>
<path d="M92.0938 73.568H119.954V72.4014H92.0938V73.568Z" fill="#AFE6FF"/>
<path d="M92.0959 76.1325H152.73V74.9658H92.0959V76.1325Z" fill="#AFE6FF"/>
<path d="M140.866 18.1608H161.781V15.709H140.866V18.1608Z" fill="#EEA248"/>
<path d="M117.068 18.1608H137.982V15.709H117.068V18.1608Z" fill="#EEA248"/>
<path d="M85.4162 19.2971C86.7262 19.2971 87.788 18.2392 87.788 16.9342C87.788 15.6292 86.7262 14.5713 85.4162 14.5713C84.1064 14.5713 83.0444 15.6292 83.0444 16.9342C83.0444 18.2392 84.1064 19.2971 85.4162 19.2971Z" fill="#EEA248"/>
<path d="M100.442 55.5041C103.354 55.5041 105.714 53.1524 105.714 50.2511C105.714 47.35 103.354 44.998 100.442 44.998C97.5297 44.998 95.1689 47.35 95.1689 50.2511C95.1689 53.1524 97.5297 55.5041 100.442 55.5041Z" fill="#EA4583"/>
<path d="M146.488 45.5225H142.802C141.053 45.5225 139.636 46.9349 139.636 48.6773V52.3487C139.636 54.091 141.053 55.5035 142.802 55.5035H146.488C148.236 55.5035 149.654 54.091 149.654 52.3487V48.6773C149.654 46.9349 148.236 45.5225 146.488 45.5225Z" fill="#958FEE"/>
<path d="M121.801 46.2718C121.874 46.1394 121.982 46.0291 122.113 45.9523C122.244 45.8754 122.393 45.835 122.544 45.835C122.696 45.835 122.845 45.8754 122.976 45.9523C123.107 46.0291 123.215 46.1394 123.288 46.2718L125.592 50.246L127.896 54.2201C127.971 54.3493 128.01 54.4958 128.01 54.6451C128.01 54.7941 127.97 54.9407 127.895 55.0694C127.819 55.1983 127.711 55.3053 127.581 55.3792C127.451 55.4531 127.304 55.4916 127.154 55.4905H117.937C117.787 55.4916 117.64 55.4531 117.51 55.3792C117.38 55.3053 117.272 55.1983 117.197 55.0694C117.121 54.9407 117.082 54.7941 117.081 54.6451C117.081 54.4958 117.12 54.3493 117.195 54.2201L119.499 50.246L121.801 46.2718Z" fill="#EEA248"/>
<path d="M202.639 37.6718L187.918 32.3671C185.548 31.513 182.932 32.7347 182.075 35.0959L146.628 132.729C145.771 135.09 146.997 137.696 149.367 138.55L164.089 143.855C166.459 144.709 169.075 143.487 169.932 141.126L205.379 43.4933C206.236 41.1321 205.009 38.5259 202.639 37.6718Z" fill="#E8F0F9"/>
<path d="M203.625 37.4767L200.18 36.2529C201.056 36.5646 201.772 37.21 202.17 38.0473C202.569 38.8845 202.617 39.8454 202.305 40.7183L166.575 140.537C166.263 141.41 165.615 142.123 164.774 142.52C163.934 142.917 162.97 142.965 162.093 142.654L165.538 143.878C166.415 144.189 167.379 144.141 168.219 143.743C169.06 143.346 169.708 142.633 170.02 141.761L205.75 41.9485C205.906 41.5157 205.974 41.0569 205.952 40.5979C205.929 40.1388 205.816 39.6889 205.618 39.2735C205.421 38.8583 205.143 38.4856 204.801 38.1774C204.459 37.8691 204.06 37.6309 203.625 37.4767Z" fill="#BCD9EA"/>
<path opacity="0.2" d="M203.625 37.4765L186.884 31.529C186.008 31.2179 185.044 31.2662 184.203 31.6632C183.363 32.0602 182.715 32.7735 182.402 33.6463L181.038 37.4574C181.351 36.5847 181.998 35.8714 182.839 35.4744C183.679 35.0774 184.644 35.0291 185.52 35.3401L202.261 41.2877C203.137 41.5993 203.852 42.2447 204.251 43.0821C204.65 43.9195 204.698 44.8801 204.386 45.7531L205.75 41.9419C206.063 41.0689 206.014 40.1083 205.616 39.2709C205.217 38.4335 204.501 37.7882 203.625 37.4765Z" fill="#463E3B"/>
<path d="M199.859 45.1709L199.45 46.3155L203.277 47.6755L203.687 46.5308L199.859 45.1709Z" fill="#314E5D"/>
<path d="M198.766 48.2217L198.356 49.3663L202.184 50.7265L202.594 49.5816L198.766 48.2217Z" fill="#314E5D"/>
<path d="M197.673 51.2725L197.263 52.4171L201.091 53.7772L201.5 52.6324L197.673 51.2725Z" fill="#314E5D"/>
<path d="M193.457 53.5381L193.042 54.6806L200.681 57.4335L201.096 56.291L193.457 53.5381Z" fill="#314E5D"/>
<path d="M196.125 56.8018L195.715 57.9466L199.542 59.3065L199.952 58.1619L196.125 56.8018Z" fill="#314E5D"/>
<path d="M195.034 59.8525L194.624 60.9974L198.451 62.3573L198.861 61.2127L195.034 59.8525Z" fill="#314E5D"/>
<path d="M193.943 62.9053L193.533 64.0499L197.36 65.4098L197.77 64.2652L193.943 62.9053Z" fill="#314E5D"/>
<path d="M189.687 65.209L189.272 66.3515L196.912 69.1044L197.327 67.9619L189.687 65.209Z" fill="#314E5D"/>
<path d="M192.393 68.4326L191.983 69.5772L195.81 70.9374L196.22 69.7926L192.393 68.4326Z" fill="#314E5D"/>
<path d="M191.302 71.4844L190.892 72.629L194.719 73.9892L195.129 72.8443L191.302 71.4844Z" fill="#314E5D"/>
<path d="M190.208 74.5361L189.798 75.681L193.626 77.0409L194.035 75.8961L190.208 74.5361Z" fill="#314E5D"/>
<path d="M185.289 76.2246L184.879 77.3692L192.534 80.0893L192.944 78.9445L185.289 76.2246Z" fill="#314E5D"/>
<path d="M187.896 79.793L187.487 80.9378L191.314 82.2977L191.724 81.1529L187.896 79.793Z" fill="#314E5D"/>
<path d="M186.803 82.8438L186.393 83.9886L190.221 85.3485L190.63 84.2039L186.803 82.8438Z" fill="#314E5D"/>
<path d="M185.712 85.8936L185.302 87.0382L189.13 88.3981L189.539 87.2535L185.712 85.8936Z" fill="#314E5D"/>
<path d="M181.381 88.2812L180.966 89.4237L188.606 92.1765L189.02 91.0342L181.381 88.2812Z" fill="#314E5D"/>
<path d="M183.779 91.2881L183.369 92.4329L187.197 93.7929L187.607 92.648L183.779 91.2881Z" fill="#314E5D"/>
<path d="M182.689 94.3379L182.279 95.4825L186.106 96.8425L186.516 95.6978L182.689 94.3379Z" fill="#314E5D"/>
<path d="M181.596 97.3887L181.186 98.5333L185.013 99.8932L185.423 98.7486L181.596 97.3887Z" fill="#314E5D"/>
<path d="M177.228 99.8125L176.813 100.955L184.453 103.708L184.868 102.565L177.228 99.8125Z" fill="#314E5D"/>
<path d="M180.047 102.92L179.637 104.065L183.465 105.424L183.874 104.28L180.047 102.92Z" fill="#314E5D"/>
<path d="M178.956 105.971L178.546 107.115L182.373 108.475L182.783 107.331L178.956 105.971Z" fill="#314E5D"/>
<path d="M177.863 109.02L177.453 110.164L181.281 111.524L181.69 110.38L177.863 109.02Z" fill="#314E5D"/>
<path d="M173.457 111.484L173.042 112.627L180.681 115.38L181.096 114.237L173.457 111.484Z" fill="#314E5D"/>
<path d="M175.932 114.415L175.523 115.56L179.35 116.92L179.76 115.775L175.932 114.415Z" fill="#314E5D"/>
<path d="M174.839 117.466L174.429 118.61L178.257 119.971L178.667 118.826L174.839 117.466Z" fill="#314E5D"/>
<path d="M173.748 120.518L173.338 121.662L177.166 123.022L177.575 121.878L173.748 120.518Z" fill="#314E5D"/>
<path d="M168.829 122.207L168.419 123.352L176.074 126.072L176.484 124.927L168.829 122.207Z" fill="#314E5D"/>
<path d="M171.818 125.911L171.408 127.056L175.236 128.416L175.645 127.271L171.818 125.911Z" fill="#314E5D"/>
<path d="M170.725 128.962L170.315 130.107L174.142 131.467L174.552 130.322L170.725 128.962Z" fill="#314E5D"/>
<path d="M169.632 132.011L169.222 133.156L173.049 134.516L173.459 133.371L169.632 132.011Z" fill="#314E5D"/>
<path d="M164.713 133.703L164.303 134.848L171.958 137.568L172.367 136.423L164.713 133.703Z" fill="#314E5D"/>
<path d="M189.767 32.9902L151.948 138.624L152.713 138.896L190.531 33.2621L189.767 32.9902Z" fill="white"/>
<path d="M147.544 137.053L146.396 136.645L183.665 32.5365C183.773 32.2331 183.998 31.9852 184.291 31.8469C184.583 31.7089 184.918 31.6917 185.223 31.7997L147.544 137.053Z" fill="white"/>
<path d="M185.228 31.8096L147.547 137.06L148.696 137.469L186.377 32.218L185.228 31.8096Z" fill="white"/>
<path d="M186.375 32.2158L148.694 137.467L149.843 137.875L187.524 32.624L186.375 32.2158Z" fill="white"/>
<path d="M160.859 136.633C161.198 135.686 160.702 134.644 159.751 134.306C158.801 133.969 157.755 134.463 157.416 135.41C157.077 136.357 157.573 137.399 158.523 137.737C159.474 138.074 160.52 137.58 160.859 136.633Z" fill="white"/>
<path d="M158.315 138.303C157.861 138.142 157.464 137.851 157.177 137.466C156.889 137.081 156.721 136.62 156.696 136.141C156.671 135.661 156.79 135.185 157.036 134.773C157.282 134.36 157.646 134.03 158.08 133.823C158.515 133.616 159.002 133.542 159.479 133.611C159.955 133.679 160.401 133.887 160.76 134.208C161.118 134.529 161.373 134.948 161.492 135.413C161.612 135.878 161.59 136.368 161.43 136.821C161.214 137.429 160.765 137.926 160.18 138.204C159.596 138.482 158.925 138.518 158.315 138.303ZM159.543 134.873C159.316 134.792 159.069 134.78 158.835 134.839C158.601 134.898 158.39 135.024 158.228 135.203C158.066 135.381 157.961 135.603 157.926 135.841C157.891 136.079 157.928 136.322 158.031 136.539C158.135 136.756 158.301 136.938 158.508 137.061C158.715 137.184 158.954 137.244 159.195 137.231C159.436 137.219 159.668 137.136 159.862 136.993C160.055 136.849 160.202 136.651 160.283 136.425C160.391 136.121 160.374 135.787 160.235 135.496C160.097 135.205 159.848 134.981 159.543 134.873Z" fill="#314E5D"/>
<path d="M195.152 39.6294C195.492 38.6823 194.996 37.6406 194.045 37.3027C193.094 36.9647 192.049 37.4587 191.71 38.406C191.37 39.3533 191.866 40.395 192.817 40.7327C193.768 41.0706 194.813 40.5767 195.152 39.6294Z" fill="white"/>
<path d="M192.606 41.3029C192.152 41.1422 191.756 40.8511 191.468 40.4661C191.18 40.0814 191.013 39.6201 190.987 39.1407C190.962 38.6613 191.081 38.1854 191.327 37.7729C191.573 37.3603 191.937 37.0297 192.371 36.8229C192.806 36.6162 193.293 36.5423 193.77 36.6107C194.247 36.6793 194.692 36.887 195.051 37.2078C195.409 37.5286 195.664 37.948 195.784 38.413C195.903 38.8782 195.881 39.3679 195.721 39.8208C195.505 40.4289 195.056 40.9264 194.471 41.2044C193.887 41.4824 193.216 41.5178 192.606 41.3029ZM193.834 37.8707C193.607 37.7899 193.36 37.7782 193.127 37.8369C192.893 37.8955 192.681 38.0221 192.519 38.2004C192.358 38.3787 192.252 38.6008 192.217 38.8388C192.182 39.0765 192.219 39.3194 192.322 39.5366C192.426 39.7539 192.592 39.9355 192.799 40.0588C193.006 40.1822 193.245 40.2415 193.486 40.2292C193.727 40.2169 193.959 40.1339 194.153 39.9904C194.346 39.8468 194.493 39.6493 194.574 39.4227C194.682 39.1191 194.665 38.7852 194.526 38.4943C194.388 38.2032 194.139 37.9789 193.834 37.8707Z" fill="#314E5D"/>
<path d="M166.01 144.905L148.158 138.553C147.277 138.238 146.558 137.589 146.157 136.747C145.756 135.904 145.707 134.938 146.02 134.06L182.149 33.1427C182.465 32.2653 183.117 31.5484 183.962 31.1491C184.808 30.7497 185.777 30.7006 186.659 31.0127L204.511 37.3646C205.392 37.6791 206.112 38.3286 206.512 39.1707C206.913 40.013 206.962 40.9791 206.649 41.8576L170.52 142.775C170.204 143.652 169.552 144.369 168.707 144.768C167.862 145.168 166.892 145.217 166.01 144.905ZM186.249 32.1666C185.672 31.9621 185.037 31.9943 184.483 32.2558C183.93 32.5175 183.503 32.9871 183.297 33.5619L147.168 134.479C146.964 135.054 146.998 135.685 147.261 136.235C147.524 136.785 147.994 137.209 148.57 137.414L166.422 143.766C167 143.97 167.635 143.938 168.188 143.676C168.742 143.415 169.168 142.945 169.374 142.371L205.504 41.4532C205.709 40.8781 205.677 40.2454 205.414 39.6939C205.152 39.1425 204.68 38.7176 204.103 38.5122L186.249 32.1666Z" fill="#314E5D"/>
<path opacity="0.1" d="M182.092 69.4674C182.178 67.861 182.484 66.2736 183.002 64.75C183.391 63.5006 184.011 62.3339 184.827 61.3094C185.664 60.2645 186.825 59.5257 188.128 59.209L188.213 59.6049C186.998 59.9032 185.918 60.5941 185.14 61.5698C184.355 62.5562 183.761 63.6791 183.386 64.8813C182.881 66.3702 182.582 67.9209 182.498 69.4906L182.092 69.4674Z" fill="black"/>
<path opacity="0.1" d="M169.221 73.8951C168.937 73.7941 168.661 73.6708 168.397 73.5267L168.592 73.1709C171.3 74.6531 175.04 73.6135 176.598 70.9605C177.051 70.1898 177.372 69.2476 177.608 67.9962C178.005 65.8789 177.973 63.986 177.51 62.36C176.957 60.4226 175.754 58.8283 174.209 57.9856L174.405 57.6299C176.046 58.5234 177.321 60.2067 177.901 62.2499C178.381 63.9437 178.417 65.8937 178.007 68.0703C177.763 69.3704 177.427 70.3549 176.945 71.168C175.438 73.7278 172.005 74.8733 169.221 73.8951Z" fill="black"/>
<path opacity="0.1" d="M169.972 69.2869L170.01 68.8846C171.651 69.0434 173.315 67.7709 173.719 66.0495C174.088 64.4658 173.419 62.6131 172.05 61.4359L172.316 61.1289C173.804 62.3993 174.52 64.4171 174.116 66.1427C173.668 68.0525 171.81 69.4648 169.972 69.2869Z" fill="black"/>
<path opacity="0.1" d="M154.549 117.242C154.258 117.139 153.983 116.997 153.732 116.819L153.968 116.488C154.738 117.037 155.722 117.179 156.808 116.901C159.177 116.296 161.709 113.829 163.258 110.617C163.957 109.167 164.552 107.458 165.132 105.239C166.106 101.508 166.55 98.2519 166.452 95.5799C166.337 92.4039 165.43 89.9775 163.963 88.9358L164.199 88.6055C165.77 89.7213 166.737 92.2578 166.858 95.5651C166.956 98.2837 166.507 101.572 165.525 105.341C164.939 107.585 164.335 109.317 163.625 110.793C162.025 114.106 159.394 116.664 156.91 117.299C156.135 117.517 155.312 117.497 154.549 117.242Z" fill="black"/>
<path opacity="0.1" d="M156.566 109.254L156.534 108.849C158.279 108.71 160.499 105.999 161.381 102.921C162.202 100.067 161.94 97.0198 160.731 95.3387L161.06 95.1016C162.359 96.9055 162.637 100.018 161.772 103.031C160.831 106.308 158.495 109.095 156.566 109.254Z" fill="black"/>
<path opacity="0.1" d="M184.534 97.8055C182.893 96.912 181.618 95.2287 181.038 93.1855C180.558 91.4917 180.521 89.5416 180.932 87.365C181.176 86.065 181.512 85.0805 181.994 84.2674C183.658 81.4344 187.654 80.3292 190.546 81.9066L190.351 82.2623C187.645 80.7802 183.903 81.8198 182.345 84.4728C181.892 85.2435 181.571 86.1857 181.335 87.437C180.938 89.5543 180.97 91.4472 181.433 93.0733C181.986 95.0106 183.189 96.605 184.734 97.4477L184.534 97.8055Z" fill="black"/>
<path opacity="0.1" d="M186.623 94.2953C185.135 93.0249 184.419 91.0071 184.823 89.2815C185.271 87.3759 187.129 85.9573 188.967 86.1352L188.929 86.5375C187.288 86.3787 185.624 87.6512 185.22 89.3725C184.851 90.9563 185.52 92.8089 186.889 93.9862L186.623 94.2953Z" fill="black"/>
<path opacity="0.1" d="M169.872 137.729C167.553 136.459 165.751 134.085 164.928 131.197C164.248 128.807 164.197 126.029 164.78 122.94C165.126 121.095 165.602 119.702 166.267 118.553C168.618 114.553 174.258 112.995 178.341 115.22L178.145 115.576C174.25 113.458 168.862 114.94 166.618 118.752C165.968 119.859 165.506 121.21 165.169 123.007C164.599 126.033 164.646 128.749 165.309 131.079C166.102 133.863 167.832 136.16 170.055 137.365L169.872 137.729Z" fill="black"/>
<path opacity="0.1" d="M172.86 132.736C170.775 130.943 169.755 128.105 170.322 125.675C170.96 122.99 173.559 121.017 176.137 121.256L176.099 121.658C173.716 121.427 171.304 123.272 170.72 125.766C170.184 128.053 171.145 130.729 173.125 132.427L172.86 132.736Z" fill="black"/>
<path d="M186.65 34.4619L150.471 135.519L151.62 135.927L187.8 34.8701L186.65 34.4619Z" fill="#314E5D"/>
<path opacity="0.1" d="M170.341 105.036C169.872 103.749 169.279 102.148 169.328 100.526C169.359 99.2558 169.753 98.0383 170.154 96.8611C170.367 96.1963 170.603 95.5103 170.76 94.8264C171.171 92.9015 171.06 90.9024 170.438 89.0345C169.816 87.1668 168.706 85.4977 167.221 84.1996L167.485 83.8926C169.025 85.2396 170.177 86.9709 170.822 88.9087C171.467 90.8465 171.582 92.9206 171.155 94.9174C170.994 95.6204 170.764 96.317 170.539 96.9903C170.156 98.14 169.763 99.3193 169.733 100.539C169.695 102.082 170.265 103.645 170.722 104.901L170.341 105.036Z" fill="black"/>
<path opacity="0.1" d="M185.656 55.0253C185.186 53.738 184.593 52.1373 184.642 50.5154C184.674 49.245 185.067 48.0276 185.469 46.8504C185.682 46.1855 185.917 45.4995 186.075 44.8156C186.486 42.891 186.375 40.8918 185.753 39.0239C185.131 37.1563 184.021 35.4872 182.536 34.1888L182.8 33.8818C184.34 35.2289 185.491 36.9604 186.136 38.8982C186.782 40.8359 186.897 42.91 186.47 44.9067C186.308 45.6096 186.079 46.3062 185.854 46.9795C185.471 48.1292 185.078 49.3086 185.048 50.5281C185.01 52.0717 185.579 53.6342 186.036 54.8898L185.656 55.0253Z" fill="black"/>
<path opacity="0.1" d="M197.058 62.9462C196.588 61.6589 195.995 60.0582 196.044 58.4363C196.076 57.1659 196.469 55.9485 196.871 54.7713C197.084 54.1064 197.32 53.4204 197.477 52.7365C197.888 50.8117 197.777 48.8125 197.155 46.9446C196.533 45.0769 195.423 43.4079 193.938 42.1097L194.202 41.8027C195.742 43.1498 196.893 44.8811 197.538 46.8189C198.184 48.7566 198.299 50.8307 197.872 52.8276C197.711 53.5305 197.481 54.2271 197.256 54.9004C196.873 56.0501 196.48 57.2295 196.45 58.449C196.412 59.9925 196.982 61.5551 197.439 62.8107L197.058 62.9462Z" fill="black"/>
<path opacity="0.1" d="M154.644 140.185L154.302 139.974C155.073 138.765 154.991 137.221 154.91 135.739C154.889 135.352 154.867 134.964 154.861 134.583C154.867 133.28 154.961 131.978 155.144 130.687C155.443 128.206 155.728 125.86 154.818 123.675C154.162 122.097 152.906 120.793 151.788 119.696L152.073 119.408C153.222 120.532 154.508 121.873 155.195 123.52C156.147 125.805 155.832 128.311 155.55 130.736C155.366 132.007 155.269 133.288 155.258 134.572C155.258 134.947 155.286 135.328 155.305 135.711C155.399 137.263 155.486 138.866 154.644 140.185Z" fill="black"/>
</g>
<defs>
<clipPath id="clip0_193_15">
<rect width="207" height="148" fill="white"/>
</clipPath>
</defs>
</svg>
